<svg xmlns="http://www.w3.org/2000/svg" width="17" height="17" viewBox="0 0 17 17" fill="none">
<path d="M12.4988 10.1571C12.3302 10.3205 12.2527 10.5567 12.2911 10.7884L12.8697 13.9905C12.9185 14.2619 12.804 14.5366 12.5769 14.6934C12.3543 14.8561 12.0581 14.8756 11.8154 14.7455L8.93288 13.2421C8.83265 13.1887 8.72136 13.1601 8.60746 13.1568H8.43109C8.36991 13.1659 8.31004 13.1854 8.25537 13.2154L5.3722 14.7259C5.22967 14.7975 5.06826 14.8229 4.91011 14.7975C4.52482 14.7246 4.26775 14.3576 4.33088 13.9703L4.91011 10.7683C4.94851 10.5346 4.87106 10.2971 4.7025 10.1311L2.35236 7.85321C2.15581 7.66251 2.08748 7.37615 2.17729 7.11777C2.2645 6.86004 2.48708 6.67195 2.75588 6.62965L5.99049 6.1604C6.2365 6.13502 6.45257 5.98533 6.56321 5.76405L7.98853 2.84184C8.02237 2.77675 8.06598 2.71688 8.11869 2.66611L8.17727 2.62055C8.20786 2.58671 8.243 2.55873 8.28205 2.53595L8.35299 2.50991L8.46363 2.46436H8.73763C8.98234 2.48974 9.19776 2.63617 9.31036 2.85485L10.7545 5.76405C10.8587 5.97687 11.0611 6.12461 11.2947 6.1604L14.5293 6.62965C14.8027 6.6687 15.0311 6.85744 15.1216 7.11777C15.2069 7.37875 15.1333 7.66512 14.9329 7.85321L12.4988 10.1571Z" fill="#FFCD6B"/>
</svg>
